<svg width="818" height="1053" viewBox="0 0 818 1053" fill="none" xmlns="http://www.w3.org/2000/svg">
<rect x="101" y="114" width="627" height="830" fill="#41C1B2"/>
<path opacity="0.1" d="M818 909C818 988.529 753.529 1053 674 1053C594.471 1053 530 988.529 530 909C530 829.471 594.471 765 674 765C753.529 765 818 829.471 818 909ZM597.473 909C597.473 951.265 631.735 985.527 674 985.527C716.265 985.527 750.527 951.265 750.527 909C750.527 866.735 716.265 832.473 674 832.473C631.735 832.473 597.473 866.735 597.473 909Z" fill="white"/>
<path opacity="0.1" d="M288 144C288 223.529 223.529 288 144 288C64.471 288 0 223.529 0 144C0 64.471 64.471 0 144 0C223.529 0 288 64.471 288 144ZM67.4728 144C67.4728 186.265 101.735 220.527 144 220.527C186.265 220.527 220.527 186.265 220.527 144C220.527 101.735 186.265 67.4728 144 67.4728C101.735 67.4728 67.4728 101.735 67.4728 144Z" fill="white"/>
<path d="M515.277 549.225C526.16 532.683 529.234 511.128 523.502 492.163C519.846 480.132 512.868 469.02 511.954 456.488C510.21 431.424 532.723 411.206 537.375 386.56C539.452 375.699 537.209 363.083 528.403 356.567C519.68 350.05 507.302 351.387 497.499 355.982C487.696 360.493 479.305 367.845 469.918 373.109C460.447 378.456 448.816 381.714 438.847 377.453C428.712 373.192 422.98 362.331 419.823 351.804C416.583 341.278 415.005 329.999 409.522 320.474C400.466 304.684 381.276 296.162 363.331 298.335C345.387 300.59 329.353 312.705 320.713 328.746C312.073 344.703 310.578 364.086 314.898 381.714C317.058 390.654 320.63 399.259 322.624 408.282C324.535 417.305 324.784 427.163 320.381 435.267C311.243 452.227 287.234 454.567 274.689 469.187C264.305 481.218 263.973 499.515 269.871 514.303C275.769 529.09 286.818 541.037 297.868 552.483C349.375 554.238 401.796 554.321 453.303 556.076C473.241 556.744 495.256 550.395 515.277 549.225Z" fill="#DCFAF2"/>
<path d="M465.063 543.359C465.468 545.515 466.143 547.401 466.953 549.288H511.505C513.26 545.11 513.26 540.798 510.695 537.025C494.494 513.982 514.475 514.386 517.715 498.62C521.225 481.371 504.62 490.265 509.75 467.087C516.5 435.69 501.785 420.597 494.359 438.789C487.339 455.903 490.984 462.91 473.703 475.712C459.393 486.357 484.369 503.336 470.193 520.181C464.118 527.323 463.713 535.947 465.063 543.359Z" fill="#08B7AC"/>
<path d="M484.234 549.288C489.229 508.592 498.14 464.123 498.275 463.584C498.41 462.91 498.005 462.371 497.33 462.236C496.655 462.102 496.115 462.506 495.98 463.18C495.845 463.719 486.934 508.457 481.804 549.422H484.234V549.288Z" fill="#0050DB"/>
<path d="M524.392 549.288C524.257 549.018 524.257 548.614 524.122 548.345C512.376 513.982 536.947 521.798 546.533 503.471C557.063 483.393 533.437 488.514 548.018 461.697C567.729 425.314 555.038 401.462 539.242 421.136C524.392 439.732 526.282 449.704 500.495 459.272C479.029 467.222 503.601 497.273 480.109 512.904C470.119 519.642 466.474 530.018 465.529 539.72C465.259 543.089 465.394 546.323 466.069 549.288H524.392Z" fill="#3ADABD"/>
<path d="M489.153 549.288C509.674 502.259 535.055 453.747 535.46 453.073C535.865 452.399 535.595 451.456 534.785 451.187C534.11 450.782 533.165 451.052 532.895 451.86C532.49 452.534 506.704 501.854 486.048 549.423H489.153V549.288Z" fill="#08B7AC"/>
<path d="M451.509 497.816L450.071 497.527L453.406 491.801C453.521 489.546 453.406 485.266 451.509 480.119C448.691 472.543 448.576 467.569 451.969 468.205C456.338 469.073 457.546 480.408 455.016 489.141L462.893 475.492C463.008 473.584 462.95 469.825 460.996 464.735C458.466 458.027 456.971 450.451 461.341 451.665C465.768 452.88 466.975 464.331 464.215 473.063L470.77 461.67C470.885 460.456 470.827 458.085 469.62 454.904C468.01 450.682 467.09 445.94 469.85 446.691C472.61 447.443 473.415 454.672 471.632 460.224L473.012 457.795C475.312 450.161 482.212 442.527 485.374 443.858C488.479 445.188 484.396 449.525 479.337 453.169C477.152 454.73 475.6 456.581 474.565 457.911L471.862 462.596C475.772 459.299 480.947 457.333 482.672 459.126C484.684 461.15 480.142 462.711 475.715 463.405C473.357 463.81 471.632 464.446 470.425 465.082L462.088 479.541C468.355 473.526 477.669 469.709 480.717 472.716C483.936 475.955 476.634 478.384 469.62 479.541C465.078 480.235 462.03 481.681 460.248 482.722L453.751 493.941C459.961 487.232 470.367 482.722 473.53 485.902C476.749 489.141 469.447 491.57 462.433 492.727C457.201 493.594 453.924 495.329 452.314 496.37L451.509 497.816Z" fill="#3ADABD"/>
<path d="M357.183 544.063C356.813 546.265 356.196 548.193 355.457 550.12H314.782C313.18 545.852 313.18 541.447 315.522 537.592C330.313 514.049 312.07 514.462 309.112 498.354C305.908 480.732 321.068 489.818 316.384 466.138C310.222 434.06 323.657 418.64 330.436 437.226C336.845 454.711 333.517 461.87 349.294 474.949C362.359 485.826 339.557 503.173 352.499 520.382C358.045 527.679 358.415 536.49 357.183 544.063Z" fill="#08B7AC"/>
<path d="M339.679 550.12C335.119 508.542 326.984 463.109 326.861 462.559C326.737 461.87 327.107 461.32 327.723 461.182C328.34 461.044 328.833 461.457 328.956 462.146C329.079 462.696 337.214 508.405 341.898 550.258H339.679V550.12Z" fill="#25D6B6"/>
<path d="M290.253 550.12C290.376 549.845 290.376 549.432 290.499 549.157C301.223 514.049 278.79 522.035 270.039 503.311C260.425 482.797 281.995 488.029 268.683 460.631C250.687 423.459 262.274 399.09 276.695 419.191C290.253 438.19 288.527 448.378 312.069 458.153C331.667 466.276 309.234 496.978 330.681 512.948C339.802 519.832 343.13 530.433 343.993 540.345C344.239 543.787 344.116 547.092 343.5 550.12H290.253Z" fill="#3ADABD"/>
<path d="M322.424 550.12C303.689 502.072 280.516 452.508 280.147 451.82C279.777 451.132 280.023 450.168 280.763 449.892C281.379 449.479 282.242 449.755 282.488 450.581C282.858 451.269 306.4 501.659 325.259 550.258H322.424V550.12Z" fill="#08B7AC"/>
<path d="M361.515 508.25H363.581L360.357 499.27C360.771 496.11 362.093 490.04 366.061 483.222C372.013 473.244 373.501 466.259 368.541 466.259C362.093 466.343 357.464 482.058 358.869 495.029L351.264 473.66C351.595 470.916 352.67 465.594 356.72 458.942C362.011 450.128 366.061 439.818 359.613 440.4C353.083 440.982 348.371 456.78 350.024 469.918L343.659 452.124C343.824 450.378 344.568 447.052 347.048 442.811C350.355 437.24 353 430.754 348.867 431.087C344.734 431.419 341.758 441.481 342.832 449.796L341.51 446.054C340.27 434.662 332.499 422.023 327.705 423.104C322.91 424.185 327.622 431.419 333.822 437.822C336.467 440.566 338.203 443.642 339.36 445.804L341.923 453.122C337.294 447.384 330.433 443.31 327.539 445.389C324.15 447.717 330.185 451.126 336.302 453.288C339.526 454.452 341.84 455.866 343.328 457.03L351.347 479.647C344.072 469.502 331.838 461.603 326.795 465.095C321.422 468.837 331.094 474.159 340.683 477.651C346.883 479.896 350.851 482.64 353.083 484.636L359.365 502.264C352.339 491.121 338.864 481.975 333.408 485.717C328.035 489.458 337.707 494.78 347.296 498.272C354.488 500.85 358.704 504.176 360.688 506.089L361.515 508.25Z" fill="#3ADABD"/>
<path d="M523.353 558H290.306C287.924 558 285.992 555.761 285.992 553C285.992 550.239 287.924 548 290.306 548H523.353C525.735 548 527.666 550.239 527.666 553C527.666 555.761 525.735 558 523.353 558Z" fill="#DCEDF9"/>
<path d="M361.953 468.791C355.779 465.114 351.274 458.848 349.855 451.831C348.437 444.813 350.105 437.21 354.361 431.445C357.698 426.934 362.621 423.091 363.205 417.576C363.872 411.812 359.533 406.883 357.614 401.452C355.195 394.852 356.446 386.998 360.785 381.484C363.955 377.474 368.544 374.55 370.63 369.955C371.965 367.031 372.132 363.772 372.466 360.598C372.799 357.423 373.467 354.081 375.636 351.658C377.722 349.235 381.644 348.149 384.23 350.071C389.069 345.058 394.743 339.043 401.167 336.369C407.591 333.696 415.267 333.278 421.275 336.787C426.03 339.544 429.201 344.39 433.289 347.982C436.877 351.073 441.132 353.246 444.97 355.919C448.808 358.676 452.396 362.185 453.564 366.78C455.483 374.299 450.477 381.819 450.226 389.588C449.976 397.108 454.315 404.042 455.232 411.561C456.234 419.164 453.647 426.85 449.559 433.367C445.554 439.883 440.047 445.314 434.708 450.744C432.538 460.519 425.279 467.454 416.102 471.464C406.924 475.474 396.662 476.143 386.65 475.808C378.473 475.307 368.962 472.884 361.953 468.791Z" fill="#6B3C00"/>
<path d="M373.133 448.99C371.047 446.233 371.131 442.39 371.965 439.048C372.799 435.706 374.384 432.531 375.052 429.19C375.97 424.594 375.219 419.832 374.301 415.321C373.383 410.726 372.215 406.131 372.299 401.452C372.382 396.773 373.884 391.928 377.472 388.92C389.987 378.393 410.261 382.069 426.531 383.74C434.791 384.576 440.381 392.513 442.967 400.366C445.554 408.219 444.719 416.992 441.549 424.678C438.462 432.364 433.205 439.048 427.365 444.813C423.861 448.238 417.603 445.481 412.764 446.484C408.008 447.403 403.92 450.327 399.498 452.165C392.406 455.172 384.146 455.423 376.887 453C374.635 452.165 372.883 451.246 373.133 448.99Z" fill="#593200"/>
<path d="M462.908 457.094C457.068 449.491 448.558 443.894 439.213 441.554C434.958 440.468 430.452 440.05 426.281 438.714C425.113 438.38 423.945 437.878 422.777 437.293C421.108 430.86 420.274 424.177 420.357 417.493H409.01H407.008H395.661C395.744 424.177 394.91 430.86 393.241 437.293C392.073 437.878 390.905 438.296 389.737 438.714C385.482 440.05 381.06 440.468 376.804 441.554C367.46 443.894 358.95 449.408 353.109 457.094C347.269 464.697 344.015 474.305 344.098 483.996V545.152L454.315 543.565C464.076 543.398 471.919 535.461 471.919 525.686V484.08C472.003 474.388 468.749 464.78 462.908 457.094Z" fill="#FFC582"/>
<path d="M420.023 541.142C422.109 535.628 422.276 529.612 423.11 523.764C424.612 512.485 428.199 501.708 430.869 490.68C433.456 479.652 435.792 467.621 432.955 456.676C416.852 458.598 400.583 458.598 384.563 456.593C378.473 459.183 375.302 466.869 374.218 473.302C373.05 479.819 373.884 486.502 374.051 493.103C374.218 500.288 373.467 507.556 373.8 514.741C374.134 521.926 375.636 529.362 379.724 535.294C382.227 538.97 385.648 541.894 389.319 544.484L418.855 544.066C419.189 543.147 419.689 542.144 420.023 541.142Z" fill="white"/>
<path d="M374.051 479.067C375.219 472.55 378.306 464.864 384.397 462.357C400.5 464.363 416.769 464.363 432.789 462.441C433.456 465.114 433.873 467.871 434.04 470.629C434.29 465.866 433.957 461.188 432.789 456.676C416.686 458.598 400.416 458.598 384.397 456.593C378.306 459.183 375.136 466.869 374.051 473.302C373.467 476.895 373.384 480.487 373.55 484.08C373.634 482.409 373.801 480.738 374.051 479.067Z" fill="#EDEDED"/>
<path d="M373.885 498.784C373.885 498.533 373.885 498.366 373.885 498.115C373.801 503.045 373.467 508.057 373.634 512.987C373.717 508.225 373.968 503.546 373.885 498.784Z" fill="#EDEDED"/>
<path d="M394.993 428.103C403.837 428.02 412.681 425.597 420.44 421.253C420.357 420.083 420.357 418.83 420.357 417.66H409.01H407.007H395.66C395.66 421.085 395.41 424.594 394.993 428.103Z" fill="#94724C"/>
<path d="M384.647 385.662C383.646 383.824 382.478 381.986 380.642 380.9C378.807 379.813 376.22 379.813 374.802 381.401C373.634 382.654 373.551 384.576 373.717 386.246C373.968 389.672 374.719 393.264 376.804 396.021C378.89 398.778 382.561 400.617 385.899 399.698C386.316 395.019 386.9 389.839 384.647 385.662Z" fill="#FFC582"/>
<path d="M384.397 389.338C384.48 389.338 384.647 389.338 384.731 389.421C384.23 388.252 383.813 387.166 383.146 386.079C382.478 385.077 381.644 384.074 380.559 383.573C379.474 382.988 378.139 382.821 376.971 383.322C375.887 383.824 374.969 384.993 375.136 386.247C375.803 385.495 376.971 385.244 377.973 385.411C378.974 385.578 379.808 386.414 380.142 387.416C379.224 387.5 378.64 388.419 378.473 389.254C378.306 390.09 378.557 391.009 378.89 391.844C379.057 392.345 379.308 392.763 379.725 393.181C380.058 393.515 380.559 393.766 381.06 393.766C380.559 394.351 379.808 394.852 379.057 394.935C380.726 395.771 382.895 395.604 384.397 394.601C384.647 392.763 384.564 391.009 384.397 389.338Z" fill="#D6A56D"/>
<path d="M429.785 387.416C430.786 385.578 431.954 383.74 433.79 382.654C435.625 381.568 438.212 381.568 439.63 383.155C440.798 384.409 440.882 386.33 440.715 388.001C440.464 391.426 439.713 395.019 437.628 397.776C435.542 400.533 431.871 402.371 428.533 401.452C428.2 396.857 427.532 391.594 429.785 387.416Z" fill="#FFC582"/>
<path d="M430.035 391.092C429.952 391.092 429.785 391.092 429.701 391.176C430.202 390.006 430.619 388.92 431.287 387.834C431.954 386.831 432.788 385.829 433.873 385.327C434.958 384.743 436.293 384.576 437.461 385.077C438.545 385.578 439.463 386.748 439.296 388.001C438.629 387.249 437.461 386.998 436.46 387.166C435.458 387.333 434.624 388.168 434.29 389.171C435.208 389.254 435.792 390.173 435.959 391.009C436.126 391.844 435.875 392.763 435.542 393.599C435.375 394.1 435.125 394.518 434.707 394.935C434.29 395.353 433.873 395.52 433.372 395.52C433.873 396.105 434.624 396.606 435.375 396.69C433.706 397.525 431.537 397.358 430.035 396.356C429.868 394.601 429.868 392.847 430.035 391.092Z" fill="#D6A56D"/>
<path d="M382.311 396.272C386.228 396.272 389.403 393.093 389.403 389.171C389.403 385.249 386.228 382.069 382.311 382.069C378.394 382.069 375.219 385.249 375.219 389.171C375.219 393.093 378.394 396.272 382.311 396.272Z" fill="#008069"/>
<path d="M432.622 396.272C436.538 396.272 439.714 393.093 439.714 389.171C439.714 385.249 436.538 382.069 432.622 382.069C428.705 382.069 425.53 385.249 425.53 389.171C425.53 393.093 428.705 396.272 432.622 396.272Z" fill="#008069"/>
<path d="M407.424 424.678C421.34 424.678 432.622 409.491 432.622 390.758C432.622 372.025 421.34 356.838 407.424 356.838C393.509 356.838 382.227 372.025 382.227 390.758C382.227 409.491 393.509 424.678 407.424 424.678Z" fill="#FFC582"/>
<path d="M383.73 377.975C382.979 377.641 384.314 376.221 386.316 375.72C391.739 374.216 397.746 373.631 402.252 376.973C402.419 377.892 401.251 379.062 400.249 379.145C399.332 379.229 398.414 378.894 397.496 378.56C393.158 376.973 388.235 376.889 383.73 377.975Z" fill="#6B3C00"/>
<path d="M430.869 377.975C431.62 377.641 430.285 376.221 428.283 375.72C422.86 374.216 416.852 373.631 412.347 376.973C412.18 377.892 413.348 379.062 414.349 379.145C415.267 379.229 416.185 378.894 417.103 378.56C421.441 376.973 426.364 376.889 430.869 377.975Z" fill="#6B3C00"/>
<path d="M393.325 400.7C397.149 400.7 400.25 399.915 400.25 398.946C400.25 397.977 397.149 397.191 393.325 397.191C389.5 397.191 386.4 397.977 386.4 398.946C386.4 399.915 389.5 400.7 393.325 400.7Z" fill="#FFA866"/>
<path d="M421.107 400.7C424.932 400.7 428.032 399.915 428.032 398.946C428.032 397.977 424.932 397.191 421.107 397.191C417.283 397.191 414.182 397.977 414.182 398.946C414.182 399.915 417.283 400.7 421.107 400.7Z" fill="#FFA866"/>
<path d="M393.491 396.021C387.317 396.021 382.227 391.009 382.227 384.743C382.227 378.56 387.233 373.464 393.491 373.464C399.665 373.464 404.755 378.477 404.755 384.743C404.755 391.009 399.749 396.021 393.491 396.021ZM393.491 375.385C388.318 375.385 384.063 379.646 384.063 384.826C384.063 390.006 388.318 394.267 393.491 394.267C398.664 394.267 402.919 390.006 402.919 384.826C402.919 379.563 398.747 375.385 393.491 375.385Z" fill="white"/>
<path d="M421.692 396.021C415.518 396.021 410.428 391.009 410.428 384.743C410.428 378.56 415.434 373.464 421.692 373.464C427.866 373.464 432.955 378.477 432.955 384.743C432.955 391.009 427.866 396.021 421.692 396.021ZM421.692 375.385C416.519 375.385 412.264 379.646 412.264 384.826C412.264 390.006 416.519 394.267 421.692 394.267C426.865 394.267 431.12 390.006 431.12 384.826C431.12 379.563 426.865 375.385 421.692 375.385Z" fill="white"/>
<path d="M404.338 385.578L403.253 384.074C404.755 382.988 408.426 381.651 411.847 384.074L410.762 385.578C407.675 383.239 404.421 385.495 404.338 385.578Z" fill="white"/>
<path d="M405.172 411.812C406.674 412.313 408.343 412.48 409.844 412.146" stroke="#D9D9D9" stroke-width="2" stroke-miterlimit="10" stroke-linecap="round" stroke-linejoin="round"/>
<path d="M372.966 392.512C381.477 386.33 388.068 377.474 391.572 367.616C397.579 373.213 406.09 376.221 414.266 375.803C412.681 375.051 411.43 373.631 410.512 372.127C418.355 373.965 425.196 378.811 430.369 384.993C432.455 387.5 434.29 390.34 436.627 392.596C439.046 394.852 442.217 396.606 445.471 396.272C443.468 387.583 441.466 378.644 438.212 370.289C436.209 365.193 433.873 360.013 429.618 356.504C424.445 352.159 417.103 350.99 410.345 351.491C403.086 351.992 395.994 354.248 389.737 358.008C381.31 363.104 374.719 371.208 371.298 380.482C370.547 382.57 369.963 384.659 370.046 386.831C370.13 389.004 371.214 391.176 372.966 392.512Z" fill="#6B3C00"/>
<path d="M379.975 400.366C381.265 400.366 382.311 399.319 382.311 398.027C382.311 396.735 381.265 395.687 379.975 395.687C378.685 395.687 377.639 396.735 377.639 398.027C377.639 399.319 378.685 400.366 379.975 400.366Z" fill="#FFEE3D"/>
<path d="M434.958 400.366C436.248 400.366 437.294 399.319 437.294 398.027C437.294 396.735 436.248 395.687 434.958 395.687C433.668 395.687 432.622 396.735 432.622 398.027C432.622 399.319 433.668 400.366 434.958 400.366Z" fill="#FFEE3D"/>
<path d="M394.075 381.401C393.241 381.401 392.573 382.069 392.156 383.072L394.075 384.993L392.156 386.915C392.573 387.917 393.241 388.586 394.075 388.586C395.326 388.586 396.411 386.998 396.411 384.993C396.328 383.072 395.326 381.401 394.075 381.401Z" fill="#453E18"/>
<path d="M420.858 381.401C420.023 381.401 419.356 382.069 418.939 383.072L420.858 384.993L418.939 386.915C419.356 387.917 420.023 388.586 420.858 388.586C422.109 388.586 423.194 386.998 423.194 384.993C423.194 383.072 422.109 381.401 420.858 381.401Z" fill="#453E18"/>
<path d="M377.889 376.806C377.389 373.13 377.806 369.287 378.974 365.611C380.225 361.935 382.144 358.509 384.814 355.669C387.401 352.744 390.738 350.405 394.326 348.818C397.913 347.23 401.918 346.395 405.923 346.395C409.928 346.395 413.849 347.23 417.52 348.818C421.108 350.405 424.445 352.744 427.032 355.669C429.702 358.509 431.704 362.018 432.872 365.611C434.04 369.287 434.457 373.13 433.957 376.806C433.039 369.454 429.618 362.854 424.445 358.175C419.356 353.58 412.598 350.99 405.84 350.99C399.081 350.99 392.407 353.58 387.234 358.175C382.228 362.854 378.807 369.454 377.889 376.806Z" fill="white"/>
<path d="M439.213 441.638C435.625 440.719 432.037 440.301 428.45 439.466C420.941 473.971 415.684 508.977 412.681 544.15L454.314 543.565C464.076 543.398 471.919 535.461 471.919 525.686V484.08C472.002 474.472 468.832 464.864 462.908 457.178C457.067 449.491 448.557 443.977 439.213 441.638Z" fill="#FDCC50"/>
<path d="M388.318 439.215C384.564 440.218 380.559 440.635 376.804 441.638C367.46 443.977 358.95 449.491 353.109 457.178C347.269 464.78 344.015 474.388 344.098 484.08V545.236L404.171 544.317C401.084 508.977 395.827 473.803 388.318 439.215Z" fill="#FDCC50"/>
<path opacity="0.18" d="M376.804 441.638C375.469 441.972 374.218 442.39 372.966 442.808C370.046 451.079 367.376 459.35 365.04 467.704C369.546 470.294 373.968 473.636 378.89 475.641C377.138 479.986 375.219 484.832 373.384 489.176C382.478 506.637 390.321 525.769 396.662 544.317L404.171 544.233C400.5 509.144 394.075 474.305 385.148 439.967C382.311 440.468 379.558 440.886 376.804 441.638Z" fill="#FDCC50"/>
<path opacity="0.18" d="M443.468 489.176C441.716 484.832 439.88 479.986 438.128 475.641C442.968 473.553 447.223 470.294 451.728 467.704C449.475 459.433 446.889 451.246 444.052 443.142C442.467 442.557 440.882 442.056 439.213 441.638C436.627 440.97 433.873 440.552 431.287 440.051C422.526 474.388 416.269 509.144 412.681 544.15L420.857 544.066C427.032 525.602 434.624 506.637 443.468 489.176Z" fill="#FDCC50"/>
<path d="M388.318 439.215C385.231 440.051 382.06 440.468 378.89 441.137C376.303 449.909 373.967 458.765 371.881 467.704C375.636 470.294 379.224 473.636 383.312 475.641C381.81 479.986 380.308 484.832 378.807 489.176C386.316 506.637 392.74 525.769 397.996 544.317L404.17 544.233C401.083 508.977 395.827 473.803 388.318 439.215Z" fill="#FFAA01"/>
<path d="M438.629 441.471C435.292 440.635 431.787 440.218 428.45 439.382C420.941 473.887 415.685 508.893 412.681 544.066L419.523 543.983C424.779 525.519 431.12 506.554 438.629 489.176C437.127 484.832 435.625 479.986 434.123 475.641C438.212 473.553 441.799 470.294 445.554 467.704C443.468 458.932 441.132 450.16 438.629 441.471Z" fill="#FFAA01"/>
<path d="M390.488 439.633C390.154 439.633 389.737 439.466 389.486 439.215C389.403 439.132 389.403 439.048 389.319 438.965C389.236 438.881 389.236 438.798 389.236 438.714C389.236 438.63 389.153 438.547 389.153 438.463C389.153 438.38 389.153 438.296 389.153 438.213C389.153 438.129 389.153 438.046 389.153 437.962C389.153 437.879 389.236 437.795 389.236 437.711C389.236 437.628 389.319 437.544 389.319 437.461C389.403 437.377 389.403 437.294 389.486 437.21C389.82 436.876 390.321 436.792 390.738 436.876C390.821 436.876 390.905 436.96 390.988 436.96C391.072 436.96 391.155 437.043 391.238 437.127C391.322 437.21 391.405 437.21 391.489 437.294C391.572 437.377 391.572 437.461 391.656 437.544C391.739 437.628 391.739 437.711 391.822 437.795C391.822 437.879 391.906 437.962 391.906 438.046C391.906 438.129 391.906 438.213 391.906 438.296C391.906 438.38 391.906 438.463 391.906 438.547C391.906 438.63 391.822 438.714 391.822 438.798C391.822 438.881 391.739 438.965 391.656 439.048C391.572 439.132 391.572 439.215 391.489 439.299C391.405 439.382 391.322 439.382 391.238 439.466C391.155 439.549 391.072 439.549 390.988 439.633C390.905 439.633 390.821 439.717 390.738 439.717C390.654 439.633 390.571 439.633 390.488 439.633Z" fill="#FFEE3D"/>
<path d="M406.423 447.486C405.756 447.486 405.172 446.901 405.088 446.233C404.921 446.901 404.254 447.319 403.586 447.236C402.919 447.152 402.418 446.567 402.418 445.899C402.168 446.567 401.501 446.901 400.833 446.818C400.166 446.651 399.665 446.066 399.748 445.397C399.498 445.982 398.747 446.316 398.08 446.149C397.412 445.982 396.995 445.23 397.162 444.562C396.828 445.147 396.077 445.397 395.41 445.063C394.742 444.729 394.492 443.977 394.742 443.309C394.242 443.81 393.491 443.894 392.907 443.476C392.323 443.058 392.239 442.223 392.573 441.638C391.989 442.056 391.155 441.889 390.738 441.304C390.32 440.719 390.404 439.8 390.988 439.382C391.572 438.964 392.49 439.048 392.907 439.633C393.241 440.134 393.241 440.719 392.99 441.22C393.491 440.886 394.075 440.886 394.576 441.304C395.076 441.638 395.243 442.306 394.993 442.891C395.41 442.473 396.077 442.306 396.578 442.557C397.162 442.808 397.412 443.476 397.329 444.061C397.663 443.559 398.247 443.309 398.914 443.476C399.498 443.643 399.915 444.228 399.915 444.896C400.166 444.311 400.833 443.977 401.417 444.144C402.085 444.228 402.502 444.813 402.502 445.481C402.752 444.896 403.336 444.478 403.92 444.562C404.588 444.646 405.088 445.147 405.088 445.815C405.255 445.23 405.839 444.813 406.507 444.813C407.174 444.813 407.675 445.314 407.758 445.899C407.842 445.314 408.426 444.813 409.01 444.813C409.677 444.813 410.178 445.23 410.428 445.815C410.511 445.23 410.929 444.646 411.596 444.562C412.264 444.478 412.848 444.813 413.098 445.397C413.098 444.813 413.515 444.228 414.099 444.061C414.683 443.894 415.351 444.228 415.684 444.729C415.601 444.144 415.935 443.476 416.519 443.309C417.103 443.058 417.77 443.309 418.104 443.81C417.937 443.225 418.187 442.557 418.771 442.306C419.355 441.972 420.023 442.139 420.44 442.64C420.19 442.056 420.44 441.387 420.941 441.053C421.441 440.719 422.109 440.719 422.609 441.137C422.276 440.635 422.443 439.883 422.86 439.466C423.444 438.964 424.278 438.964 424.779 439.549C425.279 440.134 425.279 440.97 424.695 441.471C424.195 441.972 423.444 441.972 422.86 441.554C423.193 442.139 423.027 442.891 422.443 443.309C421.858 443.727 421.108 443.643 420.607 443.142C420.857 443.81 420.607 444.478 419.94 444.813C419.355 445.147 418.521 444.98 418.187 444.395C418.354 445.063 418.021 445.732 417.353 445.982C416.686 446.233 415.935 445.982 415.684 445.314C415.768 445.982 415.351 446.651 414.683 446.818C414.016 446.985 413.348 446.651 413.098 445.982C413.098 446.651 412.597 447.236 411.93 447.319C411.262 447.403 410.595 446.985 410.428 446.316C410.345 446.985 409.844 447.57 409.093 447.57C408.426 447.57 407.842 447.152 407.675 446.484C407.675 447.068 407.091 447.486 406.423 447.486Z" fill="#FFEE3D"/>
<path d="M425.697 439.633C425.363 439.633 424.946 439.466 424.696 439.215C424.445 438.964 424.278 438.63 424.278 438.212C424.278 437.878 424.445 437.461 424.696 437.21C425.196 436.709 426.114 436.709 426.615 437.21C426.865 437.461 427.032 437.795 427.032 438.212C427.032 438.63 426.865 438.964 426.615 439.215C426.364 439.549 426.031 439.633 425.697 439.633Z" fill="#FFEE3D"/>
<path d="M399.165 413.733C396.495 413.566 393.825 413.399 391.238 412.814C388.235 412.146 385.815 410.893 383.98 409.222C381.143 406.548 379.891 402.956 379.391 400.366C378.723 397.108 378.807 393.766 378.807 390.507C378.807 390.09 379.224 389.755 379.558 389.755C379.975 389.755 380.308 390.09 380.308 390.507C380.225 393.682 380.225 396.941 380.809 400.032C381.31 402.371 382.394 405.713 384.981 408.136C386.649 409.64 388.819 410.726 391.572 411.394C394.075 411.979 396.662 412.146 399.248 412.313C399.665 412.313 399.999 412.731 399.915 413.149C399.915 413.399 399.582 413.733 399.165 413.733Z" fill="#10837C"/>
<path d="M398.581 414.903C400.147 414.903 401.417 414.005 401.417 412.898C401.417 411.79 400.147 410.893 398.581 410.893C397.014 410.893 395.744 411.79 395.744 412.898C395.744 414.005 397.014 414.903 398.581 414.903Z" fill="#006385"/>
<path d="M355.112 456.175C346.601 464.947 340.677 476.059 336.589 487.589C332.501 499.118 330.081 511.149 327.662 523.179C326.994 526.605 326.243 530.197 327.161 533.623C328.913 540.641 336.673 544.4 343.848 545.236C351.023 546.071 358.365 544.901 365.457 546.238C370.63 516.412 368.461 483.411 355.112 456.175Z" fill="#FDCC50"/>
<path d="M379.391 530.364C384.647 528.861 389.987 527.273 395.41 526.688C400.833 526.103 406.507 526.605 411.513 529.028C416.435 531.367 420.524 535.878 421.692 541.225C422.026 542.896 418.772 543.398 417.103 543.899C415.434 544.4 413.682 544.317 411.93 544.15C406.09 543.815 400.333 543.481 394.492 543.147C390.321 542.896 385.815 543.899 382.311 541.643C380.559 540.473 379.558 538.468 379.14 536.463C378.64 534.542 379.307 532.453 379.391 530.364Z" fill="#FFC582"/>
<path d="M343.347 521.425C358.532 520.589 373.717 520.506 388.902 521.341C390.32 528.443 392.156 536.296 391.572 543.481C379.391 546.74 366.709 546.907 354.444 543.815C346.1 541.894 343.18 530.03 343.347 521.425Z" fill="#FDCC50"/>
<path opacity="0.18" d="M380.559 521.258C375.302 518.501 369.045 516.83 363.204 516.245C364.122 507.556 364.372 498.784 363.788 490.095C366.041 497.113 367.626 504.298 367.543 511.65C372.632 513.488 377.638 516.579 380.559 521.258Z" fill="#FDCC50"/>
<path d="M505.867 543.875H332.491V545.296C332.491 547.217 334.077 548.805 335.996 548.805H502.363C504.282 548.805 505.867 547.217 505.867 545.296V543.875V543.875Z" fill="#DCEDF9"/>
<path d="M505.867 543.875H332.491V545.296C332.491 547.217 334.077 548.805 335.996 548.805H502.363C504.282 548.805 505.867 547.217 505.867 545.296V543.875V543.875Z" fill="#D0D8ED"/>
<path d="M392.898 545.296V543.875H332.491V545.296C332.491 547.217 334.077 548.805 335.996 548.805H389.393C391.312 548.805 392.898 547.217 392.898 545.296Z" fill="#D0D8ED"/>
<path d="M505.867 543.876H392.898L418.095 474.532C419.012 471.942 421.849 469.853 424.436 469.853H528.061C530.647 469.853 531.982 471.942 531.064 474.532L505.867 543.876Z" fill="white"/>
<path d="M470.074 506.864C468.656 510.875 464.151 514.133 460.146 514.133C456.141 514.133 454.055 510.875 455.557 506.864C456.975 502.854 461.481 499.596 465.485 499.596C469.49 499.596 471.576 502.854 470.074 506.864Z" fill="#C5CCE0"/>
<path d="M380.8 547.301H376.879C376.378 547.301 375.961 546.883 375.961 546.382C375.961 545.881 376.378 545.463 376.879 545.463H380.8C381.301 545.463 381.718 545.881 381.718 546.382C381.718 546.883 381.301 547.301 380.8 547.301Z" fill="#D0D8ED"/>
<path d="M372.874 547.301H368.952C368.452 547.301 368.035 546.883 368.035 546.382C368.035 545.881 368.452 545.463 368.952 545.463H372.874C373.374 545.463 373.792 545.881 373.792 546.382C373.708 546.883 373.374 547.301 372.874 547.301Z" fill="#D0D8ED"/>
<path d="M364.864 547.301H360.942C360.442 547.301 360.024 546.883 360.024 546.382C360.024 545.881 360.442 545.463 360.942 545.463H364.864C365.364 545.463 365.781 545.881 365.781 546.382C365.781 546.883 365.364 547.301 364.864 547.301Z" fill="#D0D8ED"/>
<path d="M366.822 539.364C360.231 539.364 354.891 534.017 354.891 527.417C354.891 520.817 360.231 515.47 366.822 515.47C373.414 515.47 378.753 520.817 378.753 527.417C378.753 534.017 373.414 539.364 366.822 539.364ZM366.822 519.229C362.317 519.229 358.646 522.905 358.646 527.417C358.646 531.928 362.317 535.604 366.822 535.604C371.328 535.604 374.999 531.928 374.999 527.417C375.082 522.905 371.328 519.229 366.822 519.229Z" fill="#D6D6D6"/>
<path d="M333.615 538.528C333.615 540.032 333.782 541.453 334.199 542.789C335.2 546.382 338.538 548.805 342.209 548.805H356.81C360.564 548.805 363.818 546.382 364.819 542.789C365.153 541.453 365.404 540.032 365.404 538.528V514.216H333.615V538.528V538.528Z" fill="white"/>
<path opacity="0.1" d="M356.893 514.216V538.528C356.893 540.032 356.726 541.453 356.309 542.789C355.308 546.382 351.971 548.805 348.3 548.805H356.81C360.564 548.805 363.818 546.382 364.819 542.789C365.153 541.453 365.404 540.032 365.404 538.528V514.216H356.893Z" fill="black"/>
<path d="M518.947 389.869H489.912C485.24 389.869 481.402 393.712 481.402 398.391V412.26C481.402 416.938 485.24 420.782 489.912 420.782H490.914L488.911 423.539C488.244 424.458 489.245 425.627 490.246 425.21L499.507 421.283C500.342 420.949 501.259 420.782 502.094 420.782H518.947C523.62 420.782 527.458 416.938 527.458 412.26V398.391C527.458 393.712 523.703 389.869 518.947 389.869Z" fill="#3ADABD"/>
<path d="M521.617 400.313H487.242C486.408 400.313 485.74 399.644 485.74 398.809C485.74 397.973 486.408 397.305 487.242 397.305H521.617C522.451 397.305 523.119 397.973 523.119 398.809C523.119 399.644 522.451 400.313 521.617 400.313Z" fill="#EDEDED"/>
<path d="M521.617 406.829H487.242C486.408 406.829 485.74 406.161 485.74 405.325C485.74 404.49 486.408 403.822 487.242 403.822H521.617C522.451 403.822 523.119 404.49 523.119 405.325C523.119 406.161 522.451 406.829 521.617 406.829Z" fill="#EDEDED"/>
<path d="M506.599 413.429H487.242C486.408 413.429 485.74 412.761 485.74 411.926C485.74 411.09 486.408 410.422 487.242 410.422H506.599C507.433 410.422 508.101 411.09 508.101 411.926C508.101 412.761 507.433 413.429 506.599 413.429Z" fill="#EDEDED"/>
<path d="M287.316 362.741C288.983 362.741 290.363 364.129 290.363 365.806C290.363 367.483 288.983 368.871 287.316 368.871C285.649 368.871 284.269 367.483 284.269 365.806C284.269 364.129 285.649 362.741 287.316 362.741ZM287.316 363.724C286.166 363.724 285.246 364.65 285.246 365.806C285.246 366.963 286.166 367.888 287.316 367.888C288.466 367.888 289.386 366.963 289.386 365.806C289.386 364.65 288.466 363.724 287.316 363.724Z" fill="white"/>
<path d="M276.219 352.62C277.887 352.62 279.266 354.008 279.266 355.685C279.266 357.363 277.887 358.751 276.219 358.751C274.552 358.751 273.172 357.363 273.172 355.685C273.172 354.008 274.494 352.62 276.219 352.62ZM276.219 353.603C275.069 353.603 274.149 354.529 274.149 355.685C274.149 356.842 275.069 357.767 276.219 357.767C277.369 357.767 278.289 356.842 278.289 355.685C278.289 354.529 277.369 353.603 276.219 353.603Z" fill="#FFAA01"/>
<path d="M272.194 370.144C272.194 370.433 272.424 370.606 272.654 370.606H274.782C275.069 370.606 275.242 370.375 275.242 370.144C275.242 369.855 275.012 369.681 274.782 369.681H272.654C272.367 369.681 272.194 369.912 272.194 370.144Z" fill="white"/>
<path d="M268.457 370.144C268.457 370.433 268.687 370.606 268.917 370.606H271.045C271.332 370.606 271.505 370.375 271.505 370.144C271.505 369.855 271.275 369.681 271.045 369.681H268.917C268.687 369.681 268.457 369.912 268.457 370.144Z" fill="white"/>
<path d="M271.389 367.194V369.103C271.389 369.392 271.619 369.565 271.849 369.565C272.137 369.565 272.309 369.334 272.309 369.103V367.194C272.309 366.905 272.079 366.732 271.849 366.732C271.619 366.732 271.389 366.905 271.389 367.194Z" fill="white"/>
<path d="M271.389 371.243V373.151C271.389 373.44 271.619 373.614 271.849 373.614C272.137 373.614 272.309 373.382 272.309 373.151V371.243C272.309 370.953 272.079 370.78 271.849 370.78C271.619 370.78 271.389 370.953 271.389 371.243Z" fill="white"/>
<path d="M294.503 353.603C294.503 353.893 294.733 354.066 294.963 354.066H297.09C297.378 354.066 297.55 353.835 297.55 353.603C297.55 353.314 297.32 353.141 297.09 353.141H294.963C294.733 353.083 294.503 353.314 294.503 353.603Z" fill="#FFAA01"/>
<path d="M290.823 353.603C290.823 353.893 291.053 354.066 291.283 354.066H293.41C293.698 354.066 293.87 353.835 293.87 353.603C293.87 353.314 293.64 353.141 293.41 353.141H291.283C291.053 353.083 290.823 353.314 290.823 353.603Z" fill="#FFAA01"/>
<path d="M293.698 350.596V352.505C293.698 352.794 293.928 352.967 294.158 352.967C294.446 352.967 294.618 352.736 294.618 352.505V350.596C294.618 350.307 294.388 350.133 294.158 350.133C293.928 350.133 293.698 350.365 293.698 350.596Z" fill="#FFAA01"/>
<path d="M293.698 354.644V356.553C293.698 356.842 293.928 357.016 294.158 357.016C294.445 357.016 294.618 356.784 294.618 356.553V354.644C294.618 354.355 294.388 354.182 294.158 354.182C293.928 354.182 293.698 354.413 293.698 354.644Z" fill="#FFAA01"/>
<path d="M563.98 385.952C565.648 385.952 567.027 387.34 567.027 389.017C567.027 390.694 565.648 392.082 563.98 392.082C562.313 392.082 560.933 390.694 560.933 389.017C560.933 387.282 562.313 385.952 563.98 385.952ZM563.98 391.099C565.13 391.099 566.05 390.173 566.05 389.017C566.05 387.86 565.13 386.935 563.98 386.935C562.83 386.935 561.91 387.86 561.91 389.017C561.91 390.173 562.83 391.099 563.98 391.099Z" fill="white"/>
<path d="M552.999 375.195C554.666 375.195 556.046 376.583 556.046 378.26C556.046 379.937 554.666 381.325 552.999 381.325C551.332 381.325 549.952 379.937 549.952 378.26C549.952 376.525 551.332 375.195 552.999 375.195ZM552.999 380.342C554.149 380.342 555.069 379.416 555.069 378.26C555.069 377.103 554.149 376.178 552.999 376.178C551.849 376.178 550.929 377.103 550.929 378.26C550.929 379.416 551.849 380.342 552.999 380.342Z" fill="#FFAA01"/>
<path d="M549.262 365.189C549.549 365.189 549.722 365.421 549.722 365.652V367.792C549.722 368.081 549.492 368.255 549.262 368.255C548.974 368.255 548.802 368.023 548.802 367.792V365.652C548.802 365.421 548.974 365.189 549.262 365.189Z" fill="white"/>
<path d="M549.262 361.488C549.549 361.488 549.722 361.719 549.722 361.951V364.091C549.722 364.38 549.492 364.553 549.262 364.553C548.974 364.553 548.802 364.322 548.802 364.091V361.951C548.802 361.719 548.974 361.488 549.262 361.488Z" fill="white"/>
<path d="M546.272 364.38H548.169C548.457 364.38 548.629 364.611 548.629 364.842C548.629 365.074 548.399 365.305 548.169 365.305H546.272C545.984 365.305 545.812 365.074 545.812 364.842C545.812 364.611 546.042 364.38 546.272 364.38Z" fill="white"/>
<path d="M550.296 364.38H552.193C552.481 364.38 552.653 364.611 552.653 364.842C552.653 365.074 552.423 365.305 552.193 365.305H550.296C550.009 365.305 549.836 365.074 549.836 364.842C549.836 364.611 550.066 364.38 550.296 364.38Z" fill="white"/>
<path d="M566.108 377.103C566.395 377.103 566.567 377.334 566.567 377.566V379.706C566.567 379.995 566.337 380.168 566.108 380.168C565.82 380.168 565.648 379.937 565.648 379.706V377.566C565.59 377.277 565.82 377.103 566.108 377.103Z" fill="#FFAA01"/>
<path d="M566.107 373.402C566.395 373.402 566.567 373.633 566.567 373.865V376.004C566.567 376.294 566.337 376.467 566.107 376.467C565.82 376.467 565.647 376.236 565.647 376.004V373.865C565.59 373.575 565.82 373.402 566.107 373.402Z" fill="#FFAA01"/>
<path d="M563.118 376.293H565.016C565.303 376.293 565.476 376.525 565.476 376.756C565.476 377.045 565.246 377.219 565.016 377.219H563.118C562.831 377.219 562.658 376.987 562.658 376.756C562.658 376.525 562.888 376.293 563.118 376.293Z" fill="#FFAA01"/>
<path d="M567.143 376.293H569.04C569.328 376.293 569.5 376.525 569.5 376.756C569.5 377.045 569.27 377.219 569.04 377.219H567.143C566.855 377.219 566.683 376.987 566.683 376.756C566.683 376.525 566.913 376.293 567.143 376.293Z" fill="#FFAA01"/>
<path d="M497.019 332.567C497.084 332.567 497.149 332.567 497.215 332.567C498 332.238 498.393 332.106 498.458 332.106C498.72 332.041 498.785 331.777 498.72 331.514C498.654 331.251 498.393 331.185 498.131 331.251C498.131 331.251 497.673 331.382 496.822 331.777C496.626 331.843 496.495 332.106 496.561 332.37C496.757 332.436 496.888 332.567 497.019 332.567Z" fill="#DCEDF9"/>
<path d="M474.313 356.59C473.986 357.38 473.724 358.235 473.463 359.091C473.397 359.288 473.201 359.42 473.005 359.42L472.939 359.42C472.677 359.354 472.547 359.091 472.612 358.828C472.874 357.972 473.135 357.116 473.463 356.261C473.528 355.998 473.79 355.932 474.051 355.998C474.313 356.129 474.444 356.393 474.313 356.59Z" fill="#DCEDF9"/>
<path d="M472.808 361.658C472.611 362.514 472.415 363.369 472.284 364.225C472.219 364.488 472.023 364.62 471.826 364.62C471.826 364.62 471.826 364.62 471.761 364.62C471.499 364.554 471.368 364.356 471.434 364.093C471.565 363.238 471.761 362.316 472.023 361.46C472.088 361.197 472.35 361.066 472.546 361.131C472.677 361.131 472.873 361.395 472.808 361.658Z" fill="#DCEDF9"/>
<path d="M470.911 375.15C470.715 375.15 470.518 374.953 470.518 374.689C470.518 373.768 470.518 372.912 470.518 371.991C470.518 371.728 470.715 371.53 470.976 371.53C471.238 371.53 471.434 371.728 471.434 371.991C471.434 372.847 471.434 373.768 471.434 374.624C471.434 374.953 471.238 375.15 470.911 375.15C470.911 375.15 470.976 375.15 470.911 375.15Z" fill="#DCEDF9"/>
<path d="M471.434 366.331C471.696 366.331 471.827 366.594 471.827 366.857C471.762 367.252 471.696 367.647 471.696 368.042C471.631 368.503 471.631 368.963 471.565 369.424C471.565 369.687 471.304 369.885 471.107 369.819C470.845 369.819 470.715 369.556 470.715 369.358C470.78 368.898 470.78 368.371 470.845 367.91C470.911 367.515 470.911 367.055 470.976 366.66C470.976 366.462 471.238 366.265 471.434 366.331Z" fill="#DCEDF9"/>
<path d="M475.361 354.155C475.295 354.352 475.099 354.418 474.903 354.418C474.837 354.418 474.837 354.418 474.772 354.352C474.575 354.221 474.445 353.957 474.575 353.76C474.968 352.97 475.361 352.115 475.753 351.325C475.884 351.127 476.146 350.996 476.342 351.127C476.538 351.259 476.669 351.522 476.538 351.72C476.08 352.575 475.688 353.365 475.361 354.155Z" fill="#DCEDF9"/>
<path d="M494.925 333.62C494.14 334.015 493.42 334.41 492.635 334.871C492.569 334.937 492.438 334.937 492.373 334.937C492.242 334.937 492.111 334.871 492.046 334.739C491.915 334.542 491.98 334.278 492.177 334.147C492.962 333.686 493.747 333.225 494.532 332.83C494.729 332.699 494.99 332.83 495.121 333.028C495.187 333.291 495.121 333.554 494.925 333.62Z" fill="#DCEDF9"/>
<path d="M488.25 337.898C488.185 337.964 488.054 338.03 487.923 337.964C487.792 337.964 487.661 337.898 487.596 337.767C487.465 337.569 487.465 337.306 487.661 337.108C488.381 336.582 489.101 336.055 489.821 335.529C490.017 335.397 490.279 335.463 490.409 335.661C490.54 335.858 490.475 336.121 490.279 336.253C489.69 336.845 488.97 337.306 488.25 337.898Z" fill="#DCEDF9"/>
<path d="M484.259 341.321C484.128 341.387 483.997 341.452 483.932 341.452C483.801 341.452 483.736 341.387 483.67 341.321C483.474 341.123 483.474 340.86 483.67 340.663C484.324 340.07 484.979 339.412 485.633 338.82C485.829 338.688 486.091 338.688 486.287 338.886C486.418 339.083 486.418 339.346 486.222 339.544C485.568 340.07 484.913 340.728 484.259 341.321Z" fill="#DCEDF9"/>
<path d="M480.792 345.204C480.661 345.335 480.53 345.401 480.399 345.401C480.334 345.401 480.268 345.335 480.137 345.335C479.941 345.204 479.941 344.875 480.072 344.677C480.595 343.953 481.184 343.295 481.838 342.637C482.035 342.44 482.296 342.44 482.493 342.637C482.689 342.834 482.689 343.098 482.493 343.295C481.904 343.822 481.315 344.546 480.792 345.204Z" fill="#DCEDF9"/>
<path d="M477.781 349.548C477.716 349.679 477.519 349.745 477.323 349.745C477.258 349.745 477.192 349.745 477.127 349.679C476.93 349.548 476.865 349.284 476.996 349.087C477.454 348.297 477.977 347.573 478.435 346.849C478.566 346.652 478.828 346.586 479.024 346.718C479.221 346.849 479.286 347.113 479.155 347.31C478.697 348.034 478.239 348.758 477.781 349.548Z" fill="#DCEDF9"/>
<path d="M497.084 329.474L495.121 322.234L519.004 322.432L497.084 329.474Z" fill="#FDCC50"/>
<path d="M519.004 322.432L498.196 331.251L498.131 331.251L497.28 332.765L497.084 329.474L519.004 322.432Z" fill="#FFAA01"/>
<path d="M497.281 332.765L499.178 332.436L498.131 331.251L497.281 332.765Z" fill="#F88800"/>
<path d="M500.748 330.198L498.131 331.251L503.562 337.372L519.004 322.432L500.748 330.198Z" fill="#FDCC50"/>
</svg>
